<svg width="28" height="28" viewBox="0 0 28 28" fill="none" xmlns="http://www.w3.org/2000/svg">
<path d="M6.70825 4.08355V14.0002C6.70655 14.1797 6.64966 14.3544 6.54531 14.5005C6.44096 14.6466 6.29419 14.757 6.12492 14.8169C6.03209 14.854 5.93323 14.8738 5.83325 14.8752H2.33325C2.10213 14.8722 1.88132 14.779 1.71788 14.6156C1.55443 14.4521 1.46128 14.2313 1.45825 14.0002V4.08355C1.45729 3.41404 1.71333 2.76969 2.17354 2.28343C2.63375 1.79717 3.26304 1.50608 3.93159 1.47021H4.08325C4.77743 1.47021 5.44335 1.74517 5.9353 2.23493C6.42725 2.72469 6.70517 3.38938 6.70825 4.08355Z" fill="#BC813D"/>
<path d="M24.2082 8.16683V24.2435C24.2081 24.5967 24.1163 24.9439 23.9418 25.251C23.7674 25.5582 23.5163 25.8148 23.2129 25.9958C22.9096 26.1769 22.5646 26.2761 22.2114 26.2839C21.8583 26.2917 21.5092 26.2077 21.1982 26.0402L20.8249 25.8302C20.3678 25.4997 19.8135 25.3314 19.2499 25.3518C18.6774 25.3331 18.1151 25.5055 17.6515 25.8418C16.9102 26.3182 16.0477 26.5714 15.1665 26.5714C14.2854 26.5714 13.4228 26.3182 12.6815 25.8418C12.2138 25.5151 11.6535 25.3474 11.0832 25.3635C10.5164 25.3466 9.95951 25.5145 9.49652 25.8418L9.13485 26.0518C8.82388 26.2194 8.47476 26.3033 8.12162 26.2956C7.76848 26.2878 7.42339 26.1886 7.12009 26.0075C6.81679 25.8265 6.56564 25.5698 6.3912 25.2627C6.21675 24.9555 6.12498 24.6084 6.12485 24.2552V3.79183C6.12592 3.1965 5.8994 2.62328 5.49165 2.1895C5.08391 1.75573 4.52578 1.49421 3.93152 1.4585H17.4999C19.2781 1.46158 20.9826 2.16934 22.24 3.42673C23.4973 4.68412 24.2051 6.38862 24.2082 8.16683Z" fill="#FFAB49"/>
<path d="M19.2499 9.04199H11.0833C10.8512 9.04199 10.6286 8.94981 10.4645 8.78571C10.3004 8.62162 10.2083 8.39906 10.2083 8.16699C10.2083 7.93493 10.3004 7.71237 10.4645 7.54827C10.6286 7.38418 10.8512 7.29199 11.0833 7.29199H19.2499C19.482 7.29199 19.7045 7.38418 19.8686 7.54827C20.0327 7.71237 20.1249 7.93493 20.1249 8.16699C20.1249 8.39906 20.0327 8.62162 19.8686 8.78571C19.7045 8.94981 19.482 9.04199 19.2499 9.04199Z" fill="white"/>
<path d="M15.7498 18.3755H11.0831C10.8511 18.3755 10.6285 18.2833 10.4644 18.1192C10.3003 17.9551 10.2081 17.7326 10.2081 17.5005C10.2081 17.2684 10.3003 17.0459 10.4644 16.8818C10.6285 16.7177 10.8511 16.6255 11.0831 16.6255H15.7498C15.9819 16.6255 16.2044 16.7177 16.3685 16.8818C16.5326 17.0459 16.6248 17.2684 16.6248 17.5005C16.6248 17.7326 16.5326 17.9551 16.3685 18.1192C16.2044 18.2833 15.9819 18.3755 15.7498 18.3755Z" fill="white"/>
<path d="M19.2498 13.7085H11.0831C10.8511 13.7085 10.6285 13.6163 10.4644 13.4522C10.3003 13.2881 10.2081 13.0656 10.2081 12.8335C10.2081 12.6014 10.3003 12.3789 10.4644 12.2148C10.6285 12.0507 10.8511 11.9585 11.0831 11.9585H19.2498C19.4819 11.9585 19.7044 12.0507 19.8685 12.2148C20.0326 12.3789 20.1248 12.6014 20.1248 12.8335C20.1248 13.0656 20.0326 13.2881 19.8685 13.4522C19.7044 13.6163 19.4819 13.7085 19.2498 13.7085Z" fill="white"/>
</svg>
