<svg width="124" height="124" viewBox="0 0 124 124" fill="none" xmlns="http://www.w3.org/2000/svg">
<g clip-path="url(#clip0_390_1379)">
<path opacity="0.15" d="M82.3889 25.2847C79.5819 25.2819 76.8909 24.1657 74.9061 22.181C72.9217 20.1963 71.8051 17.5051 71.8025 14.6982V0.0117188H24.5254C20.863 0.0117188 17.3506 1.46657 14.7609 4.05627C12.1712 6.64596 10.7164 10.1584 10.7164 13.8208V97.0649C10.7164 100.727 12.1712 104.24 14.7609 106.829C17.3506 109.419 20.863 110.874 24.5254 110.874H81.2805C84.9429 110.874 88.4554 109.419 91.0448 106.829C93.6347 104.24 95.0895 100.727 95.0895 97.0649V25.2847H82.3889Z" fill="#A140FF"/>
<path d="M95.0895 25.2847H82.3889C79.5819 25.2819 76.8909 24.1657 74.9061 22.181C72.9217 20.1963 71.8051 17.5051 71.8025 14.6983V0.0117188L95.0895 25.2847Z" fill="#A140FF"/>
<path d="M105.106 87.5605H40.9414C36.3898 87.5605 32.7001 91.2501 32.7001 95.8018V114.932C32.7001 119.484 36.3898 123.174 40.9414 123.174H105.106C109.658 123.174 113.348 119.484 113.348 114.932V95.8018C113.348 91.2501 109.658 87.5605 105.106 87.5605Z" fill="#A140FF"/>
<path d="M53.1114 115.472C52.3786 115.472 52.0122 115.106 52.0122 114.373V98.8277C52.0122 98.0949 52.3786 97.7285 53.1114 97.7285H59.4186C61.6954 97.7285 63.3703 98.2694 64.4433 99.3511C65.525 100.424 66.0659 102.099 66.0659 104.376V108.825C66.0659 111.102 65.5297 112.781 64.4567 113.863C63.3924 114.936 61.7128 115.472 59.4186 115.472H53.1114ZM54.2106 113.274H59.4186C60.5352 113.274 61.4163 113.139 62.0618 112.868C62.716 112.589 63.1784 112.127 63.4488 111.481C63.728 110.827 63.8676 109.942 63.8676 108.825V104.376C63.8676 103.268 63.728 102.391 63.4488 101.746C63.1784 101.091 62.716 100.625 62.0618 100.346C61.4163 100.066 60.5352 99.9269 59.4186 99.9269H54.2106V113.274Z" fill="white"/>
<path d="M71.973 115.472C71.2402 115.472 70.8738 115.106 70.8738 114.373V98.8277C70.8738 98.0949 71.2402 97.7285 71.973 97.7285C72.7058 97.7285 73.0721 98.0949 73.0721 98.8277V113.274H80.3215C81.0543 113.274 81.4207 113.64 81.4207 114.373C81.4207 115.106 81.0543 115.472 80.3215 115.472H71.973Z" fill="white"/>
<path d="M86.1319 115.472C85.3991 115.472 85.0327 115.106 85.0327 114.373V98.8277C85.0327 98.0949 85.3991 97.7285 86.1319 97.7285C86.8647 97.7285 87.2311 98.0949 87.2311 98.8277V113.274H94.4804C95.2132 113.274 95.5796 113.64 95.5796 114.373C95.5796 115.106 95.2132 115.472 94.4804 115.472H86.1319Z" fill="white"/>
<path d="M45.8061 81.806C45.2209 81.806 44.6597 81.5735 44.2459 81.1599C43.832 80.7458 43.5995 80.1844 43.5995 79.5994V76.2074C43.5995 75.918 43.6567 75.6311 43.7676 75.3638C43.8786 75.0964 44.0411 74.8537 44.2461 74.649C44.4511 74.4447 44.6944 74.2826 44.9621 74.1723C45.2298 74.0619 45.5166 74.0055 45.8061 74.006C46.39 74.006 46.9499 74.2379 47.3627 74.651C47.7756 75.0636 48.0075 75.6235 48.0075 76.2074V79.5994C48.0075 80.1839 47.7758 80.7442 47.3631 81.1578C46.9504 81.5714 46.3904 81.8044 45.8061 81.806Z" fill="#A140FF"/>
<path d="M45.8061 54.4579C45.5166 54.4584 45.2298 54.4019 44.9621 54.2916C44.6944 54.1813 44.4511 54.0196 44.2461 53.8149C44.0411 53.6107 43.8786 53.3674 43.7676 53.1001C43.6567 52.8327 43.5995 52.5459 43.5995 52.2564V48.3103C43.5995 47.7251 43.832 47.1638 44.2459 46.75C44.6597 46.3362 45.2209 46.1036 45.8061 46.1036C46.3904 46.105 46.9504 46.3381 47.3631 46.7518C47.7758 47.1655 48.0075 47.7259 48.0075 48.3103V52.2564C48.0075 52.8404 47.7756 53.4003 47.3627 53.8133C46.9499 54.2259 46.39 54.4579 45.8061 54.4579Z" fill="#A140FF"/>
<path d="M53.6318 79.7139C53.2442 79.7134 52.8634 79.6113 52.5276 79.4178C52.1917 79.2244 51.9125 78.9457 51.7177 78.6106L50.0757 75.7575C49.7836 75.251 49.7043 74.6496 49.8553 74.0846C50.0064 73.5201 50.3753 73.0383 50.8812 72.7452C51.3882 72.4538 51.9904 72.3753 52.5553 72.5272C53.1201 72.679 53.6014 73.049 53.8935 73.556L55.5408 76.404C55.8324 76.911 55.9109 77.513 55.7589 78.078C55.6068 78.643 55.2367 79.1243 54.7299 79.4163C54.3966 79.6108 54.0178 79.7134 53.6318 79.7139Z" fill="#A140FF"/>
<path d="M40.0073 56.1084C39.6194 56.1089 39.2383 56.0073 38.9023 55.8138C38.5662 55.6199 38.2871 55.3412 38.0932 55.0051L36.0766 51.5054C35.9313 51.2552 35.837 50.9788 35.7989 50.6921C35.7608 50.4053 35.7797 50.1139 35.8546 49.8345C35.9294 49.555 36.0587 49.2932 36.235 49.0639C36.4114 48.8346 36.6314 48.6424 36.8823 48.4983C37.1328 48.353 37.4095 48.2585 37.6967 48.2204C37.9839 48.1822 38.2757 48.2011 38.5555 48.2759C38.8353 48.3508 39.0976 48.4801 39.3274 48.6566C39.5571 48.833 39.7498 49.053 39.8944 49.304L41.9111 52.8037C42.0564 53.0541 42.1509 53.3312 42.1891 53.6181C42.2273 53.9054 42.2083 54.1974 42.1334 54.4771C42.0586 54.7567 41.9294 55.019 41.753 55.2489C41.5766 55.4788 41.3565 55.6712 41.1055 55.8159C40.7715 56.0083 40.3927 56.1089 40.0073 56.1084Z" fill="#A140FF"/>
<path d="M59.3586 73.9825C58.9711 73.9814 58.5907 73.8788 58.2554 73.6849L55.4022 72.0376C54.8966 71.7456 54.5277 71.2648 54.3766 70.7008C54.2255 70.1369 54.3047 69.536 54.5966 69.0305C54.8887 68.5235 55.37 68.1535 55.9349 68.0016C56.4997 67.8497 57.1018 67.9283 57.6088 68.2197L60.462 69.867C60.9679 70.16 61.3369 70.6418 61.4879 71.2063C61.6391 71.7713 61.5598 72.3727 61.2676 72.8792C61.0749 73.2148 60.7968 73.494 60.4616 73.6879C60.1263 73.8814 59.7458 73.983 59.3586 73.9825Z" fill="#A140FF"/>
<path d="M35.7482 60.3572C35.3624 60.3557 34.9839 60.253 34.6501 60.0596L31.1503 58.0429C30.6444 57.7498 30.2754 57.268 30.1244 56.7035C29.9733 56.1385 30.0526 55.5371 30.3447 55.0306C30.6368 54.5236 31.1182 54.1536 31.683 54.0018C32.2478 53.8499 32.8499 53.9279 33.3569 54.2198L36.8567 56.2417C37.3626 56.5347 37.7316 57.0166 37.8826 57.581C38.0337 58.146 37.9545 58.7474 37.6623 59.2539C37.4684 59.5895 37.1893 59.8687 36.8533 60.0621C36.5172 60.2561 36.136 60.3577 35.7482 60.3572Z" fill="#A140FF"/>
<path d="M61.4524 66.162H58.0553C57.4705 66.1605 56.91 65.9275 56.4965 65.5144C56.0829 65.1008 55.8501 64.5405 55.8488 63.9555C55.8501 63.371 56.0832 62.8111 56.4968 62.3986C56.9105 61.986 57.471 61.754 58.0553 61.754H61.4524C62.0369 61.754 62.5972 61.986 63.0108 62.3986C63.4244 62.8111 63.6574 63.371 63.6589 63.9555C63.6574 64.5405 63.4244 65.1008 63.0113 65.5144C62.5977 65.9275 62.0374 66.1605 61.4524 66.162Z" fill="#A140FF"/>
<path d="M34.1011 66.162H30.1601C29.5753 66.1605 29.0148 65.9275 28.6013 65.5144C28.1878 65.1008 27.9548 64.5405 27.9535 63.9555C27.9548 63.371 28.1879 62.8111 28.6016 62.3986C29.0152 61.986 29.5757 61.754 30.1601 61.754H34.1011C34.6849 61.754 35.2448 61.986 35.6577 62.3991C36.0705 62.8116 36.3025 63.3715 36.3025 63.9555C36.3025 64.54 36.0708 65.1003 35.6581 65.5139C35.2454 65.9275 34.6854 66.1605 34.1011 66.162Z" fill="#A140FF"/>
<path d="M56.2642 60.1211C55.8764 60.1217 55.4952 60.0201 55.1591 59.8261C54.8231 59.6326 54.544 59.354 54.3501 59.0179C54.2058 58.7669 54.1123 58.4903 54.075 58.204C54.0376 57.9171 54.0571 57.6257 54.1324 57.346C54.2078 57.0668 54.3373 56.8051 54.5138 56.5763C54.6903 56.3469 54.9101 56.155 55.1609 56.0108L58.2398 54.2198C58.7468 53.9279 59.349 53.8499 59.9139 54.0018C60.4787 54.1536 60.96 54.5236 61.2521 55.0306C61.5443 55.5371 61.6236 56.1385 61.4724 56.7035C61.3213 57.268 60.9524 57.7498 60.4464 58.0429L57.3675 59.8286C57.0323 60.0226 56.6515 60.1237 56.2642 60.1211Z" fill="#A140FF"/>
<path d="M32.2537 73.9816C31.8666 73.9811 31.4865 73.879 31.1514 73.6855C30.8164 73.4921 30.5382 73.2134 30.3447 72.8783C30.0526 72.3719 29.9733 71.7704 30.1244 71.2055C30.2754 70.641 30.6444 70.1591 31.1503 69.8661L34.414 67.9828C34.9207 67.6919 35.5219 67.6139 36.0863 67.7647C36.6506 67.9156 37.1323 68.2835 37.4262 68.7885C37.7183 69.295 37.7976 69.8964 37.6466 70.4614C37.4955 71.0258 37.1265 71.5077 36.6206 71.8007L33.3569 73.684C33.0216 73.878 32.6412 73.9806 32.2537 73.9816Z" fill="#A140FF"/>
<path d="M46.0782 78.415H45.7242C43.2022 78.3606 40.7415 77.6263 38.6016 76.2905C36.4861 74.9789 34.752 73.1351 33.5726 70.9435C32.4702 68.8795 31.8922 66.5765 31.8895 64.2365C31.8895 64.1134 31.8895 64.0005 31.8895 63.8824C31.9502 61.4711 32.6248 59.1152 33.8497 57.0369C35.073 54.9617 36.8035 53.2314 38.8787 52.008C40.9654 50.7822 43.3303 50.1093 45.7498 50.0529H46.0731C48.4159 50.05 50.7226 50.6302 52.7852 51.7412C54.9753 52.9168 56.8175 54.6472 58.1272 56.7598C59.466 58.9099 60.1998 61.3813 60.2516 63.9132V64.2365C60.2521 66.6863 59.6174 69.0946 58.4094 71.2257C57.1466 73.4625 55.2979 75.313 53.0622 76.5779C50.9319 77.7828 48.5258 78.416 46.0782 78.415ZM46.0217 54.4557H45.8832C44.2087 54.4896 42.5709 54.9525 41.1263 55.8002C39.6935 56.6438 38.4982 57.8375 37.6523 59.2692C36.806 60.707 36.3413 62.3373 36.3026 64.0056V64.2314C36.3031 65.8422 36.6996 67.4283 37.4572 68.8498C38.2712 70.3646 39.4693 71.6388 40.9313 72.5445C42.4116 73.4631 44.1109 73.968 45.8525 74.007H46.0782C47.7671 74.0091 49.4275 73.5724 50.8967 72.7395C52.4396 71.8661 53.7153 70.5889 54.5864 69.0448C55.4182 67.5772 55.8549 65.9186 55.8539 64.2314V64.0364C55.8159 62.2834 55.3111 60.5721 54.3914 59.0793C53.4846 57.6224 52.2127 56.4283 50.7018 55.6155C49.2608 54.8499 47.6534 54.4516 46.0217 54.4557Z" fill="#A140FF"/>
<path d="M51.7383 55.8775C51.3529 55.8785 50.974 55.7774 50.6401 55.585C50.3891 55.4403 50.1691 55.2478 49.9926 55.0179C49.8162 54.7881 49.687 54.5258 49.6121 54.2462C49.5373 53.9665 49.5184 53.6745 49.5565 53.3871C49.5947 53.1003 49.6892 52.8232 49.8345 52.5728L51.7178 49.304C51.8623 49.053 52.0551 48.833 52.2848 48.6566C52.5145 48.4801 52.7768 48.3508 53.0566 48.2759C53.3365 48.2011 53.6283 48.1822 53.9155 48.2204C54.2026 48.2585 54.4794 48.353 54.7299 48.4983C54.9807 48.6424 55.2007 48.8346 55.3771 49.0638C55.5536 49.2929 55.6832 49.5546 55.7585 49.8339C55.8338 50.1131 55.8533 50.4045 55.816 50.6913C55.7786 50.9781 55.6851 51.2548 55.5408 51.5054L53.6524 54.7742C53.4584 55.1103 53.1793 55.389 52.8433 55.5824C52.5073 55.7764 52.1262 55.878 51.7383 55.8775Z" fill="#A140FF"/>
<path d="M37.9858 79.7144C37.5998 79.7139 37.221 79.6112 36.8877 79.4168C36.6366 79.272 36.4166 79.0796 36.2402 78.8497C36.0638 78.6198 35.9344 78.3576 35.8596 78.0779C35.7847 77.7983 35.7658 77.5063 35.804 77.2189C35.8422 76.9321 35.9366 76.6549 36.082 76.4045L37.8626 73.3256C38.0072 73.0747 38.1999 72.8545 38.4296 72.678C38.6594 72.502 38.9217 72.3721 39.2015 72.2977C39.4814 72.2228 39.7732 72.2038 40.0603 72.2418C40.3475 72.2803 40.6242 72.3747 40.8748 72.5199C41.3807 72.8129 41.7498 73.2948 41.9008 73.8593C42.0519 74.4243 41.9726 75.0257 41.6805 75.5322L39.8998 78.6111C39.7059 78.9472 39.4269 79.2259 39.0909 79.4198C38.7548 79.6133 38.3736 79.7149 37.9858 79.7144Z" fill="#A140FF"/>
<path d="M66.1271 51.6662C65.7704 51.6662 65.4287 51.5246 65.1762 51.2724C64.9242 51.0203 64.7826 50.6783 64.7826 50.3218V48.2692C64.7826 48.0928 64.8175 47.9183 64.8852 47.7554C64.9524 47.5926 65.052 47.4447 65.1767 47.3202C65.3014 47.1958 65.4497 47.0973 65.6129 47.0303C65.7761 46.9633 65.9505 46.9292 66.1271 46.9298C66.4822 46.9298 66.8229 47.0709 67.0743 47.3221C67.3253 47.5732 67.4664 47.9139 67.4664 48.2692V50.3218C67.4669 50.4981 67.433 50.6728 67.3658 50.8359C67.2991 50.9989 67.2006 51.1472 67.0759 51.2721C66.9517 51.3968 66.8034 51.4963 66.6407 51.5636C66.4781 51.6313 66.3036 51.6662 66.1271 51.6662Z" fill="#A140FF"/>
<path d="M66.1272 35.0232C65.9507 35.0238 65.7762 34.9897 65.613 34.9227C65.4498 34.8557 65.3015 34.7572 65.1768 34.6327C65.0521 34.5083 64.9526 34.3604 64.8853 34.1976C64.8176 34.0347 64.7827 33.8602 64.7827 33.6838V31.2822C64.7827 30.9257 64.9243 30.5837 65.1763 30.3316C65.4288 30.0795 65.7705 29.9377 66.1272 29.9377C66.3037 29.9377 66.4782 29.9726 66.6409 30.0403C66.8035 30.1079 66.9518 30.207 67.076 30.3319C67.2007 30.4568 67.2992 30.6051 67.3659 30.7681C67.4332 30.9312 67.467 31.1059 67.4665 31.2822V33.6838C67.4665 34.039 67.3254 34.3797 67.0745 34.6309C66.823 34.8821 66.4823 35.0232 66.1272 35.0232Z" fill="#A140FF"/>
<path d="M70.8893 50.3864C70.6537 50.387 70.4218 50.3257 70.2175 50.2086C70.0133 50.0915 69.8429 49.9228 69.7244 49.7193L68.7237 47.9848C68.5482 47.6731 68.5041 47.3045 68.6001 46.96C68.6965 46.6156 68.9254 46.3235 69.2369 46.1477C69.3908 46.061 69.5607 46.0055 69.7357 45.9844C69.9112 45.9632 70.0892 45.9769 70.2591 46.0246C70.4295 46.0722 70.5886 46.1529 70.7276 46.2621C70.8662 46.3713 70.9821 46.5068 71.0689 46.6609L72.0952 48.3953C72.1819 48.5493 72.2373 48.7188 72.2584 48.8942C72.2799 49.0696 72.2661 49.2475 72.2183 49.4177C72.1706 49.5878 72.09 49.7469 71.9807 49.8859C71.8714 50.0248 71.736 50.1408 71.582 50.2273C71.3701 50.3427 71.1304 50.3978 70.8893 50.3864Z" fill="#A140FF"/>
<path d="M62.6173 36.0296C62.3812 36.0291 62.1493 35.9668 61.945 35.8489C61.7408 35.7309 61.5708 35.5615 61.4524 35.3574L60.226 33.2277C60.1393 33.0738 60.0838 32.9042 60.0626 32.7288C60.0415 32.5534 60.0552 32.3755 60.1029 32.2054C60.1505 32.0353 60.2312 31.8762 60.3404 31.7373C60.4495 31.5983 60.5851 31.4823 60.7392 31.3958C60.893 31.3084 61.0625 31.2524 61.238 31.2309C61.4136 31.2094 61.592 31.2229 61.7618 31.2706C61.9322 31.3183 62.0913 31.3992 62.2304 31.5088C62.3694 31.6184 62.4849 31.7544 62.5711 31.909L63.7975 34.0386C63.8843 34.1925 63.9397 34.362 63.9607 34.5375C63.9823 34.7128 63.9684 34.8907 63.9207 35.0609C63.873 35.231 63.7924 35.3901 63.6831 35.5291C63.5738 35.668 63.4383 35.784 63.2844 35.8705C63.0791 35.9792 62.8497 36.0339 62.6173 36.0296Z" fill="#A140FF"/>
<path d="M74.3736 46.9038C74.1375 46.9049 73.9056 46.8429 73.7013 46.7242L71.9669 45.6979C71.8129 45.6114 71.6774 45.4953 71.5681 45.3564C71.4588 45.2174 71.3783 45.0584 71.3306 44.8882C71.2828 44.7181 71.269 44.5403 71.2905 44.3648C71.3116 44.1894 71.367 44.0198 71.4537 43.8659C71.5399 43.7113 71.6554 43.5754 71.7944 43.4658C71.933 43.3562 72.0926 43.2752 72.263 43.2275C72.4333 43.1798 72.6109 43.1663 72.7869 43.1878C72.9624 43.2093 73.1317 43.2653 73.2857 43.3527L75.0201 44.379C75.1746 44.465 75.3106 44.5809 75.4204 44.7198C75.5297 44.8586 75.6108 45.0178 75.6585 45.1881C75.7062 45.3584 75.7196 45.5365 75.698 45.7121C75.677 45.8877 75.6205 46.0573 75.5333 46.211C75.4189 46.4193 75.2516 46.5932 75.0473 46.7151C74.8436 46.8368 74.6112 46.902 74.3736 46.9038Z" fill="#A140FF"/>
<path d="M60.0103 38.6102C59.7742 38.6113 59.5422 38.5493 59.3382 38.4306L57.2085 37.2041C57.0544 37.1176 56.9189 37.0016 56.8098 36.8627C56.7006 36.7237 56.6198 36.5646 56.5722 36.3945C56.5245 36.2243 56.5108 36.0465 56.532 35.871C56.5531 35.6956 56.6086 35.5261 56.6954 35.3722C56.8711 35.0607 57.1632 34.8316 57.5077 34.7354C57.8521 34.6392 58.2208 34.6837 58.5325 34.859L60.6569 36.0855C60.9684 36.2612 61.1975 36.5533 61.2937 36.8978C61.3899 37.2422 61.3454 37.6108 61.17 37.9225C61.0548 38.1295 60.8868 38.3021 60.6831 38.4229C60.4793 38.5437 60.2472 38.6083 60.0103 38.6102Z" fill="#A140FF"/>
<path d="M75.6462 42.1449H73.5936C73.4171 42.1449 73.2426 42.1101 73.0799 42.0425C72.9173 41.9748 72.7695 41.8757 72.6448 41.7508C72.5206 41.6259 72.4216 41.4776 72.3549 41.3145C72.2876 41.1514 72.2538 40.9767 72.2543 40.8004C72.2543 40.4452 72.3954 40.1045 72.6463 39.8533C72.8978 39.6022 73.2385 39.4611 73.5936 39.4611H75.6462C75.8228 39.4604 75.9972 39.4945 76.1604 39.5615C76.3236 39.6286 76.4719 39.7271 76.5966 39.8515C76.7213 39.976 76.8209 40.1239 76.8881 40.2867C76.9558 40.4495 76.9907 40.6241 76.9907 40.8004C76.9907 41.157 76.8491 41.499 76.5971 41.7511C76.3446 42.0032 76.0029 42.1449 75.6462 42.1449Z" fill="#A140FF"/>
<path d="M59.025 42.1449H56.6235C56.4471 42.1449 56.2725 42.1101 56.1097 42.0424C55.9469 41.9748 55.799 41.8757 55.6746 41.7508C55.5501 41.6259 55.4516 41.4776 55.3845 41.3145C55.3175 41.1514 55.2834 40.9767 55.2841 40.8004C55.2841 40.6245 55.3187 40.4504 55.386 40.2879C55.4534 40.1254 55.5519 39.9777 55.6763 39.8533C55.8007 39.7289 55.9484 39.6303 56.1109 39.563C56.2734 39.4957 56.4475 39.4611 56.6235 39.4611H59.025C59.3802 39.4611 59.7208 39.6021 59.972 39.8533C60.2231 40.1045 60.3644 40.4452 60.3644 40.8004C60.365 40.9767 60.3309 41.1514 60.2639 41.3145C60.1969 41.4776 60.0983 41.6259 59.9739 41.7508C59.8494 41.8757 59.7016 41.9748 59.5387 42.0424C59.3759 42.1101 59.2013 42.1449 59.025 42.1449Z" fill="#A140FF"/>
<path d="M72.4904 38.4976C72.2543 38.4972 72.0224 38.4349 71.8182 38.317C71.6139 38.199 71.4441 38.0294 71.3255 37.8253C71.2388 37.6714 71.1834 37.5019 71.1623 37.3265C71.1408 37.151 71.1547 36.9731 71.2024 36.803C71.2501 36.6329 71.3307 36.4737 71.44 36.3348C71.5493 36.1959 71.6847 36.0799 71.8387 35.9934L73.722 34.9055C73.8759 34.8188 74.0453 34.7633 74.2208 34.7422C74.3963 34.7211 74.5743 34.7347 74.7442 34.7823C74.9145 34.83 75.0736 34.9108 75.2127 35.0199C75.3512 35.1291 75.4672 35.2646 75.5539 35.4186C75.6412 35.5724 75.6976 35.742 75.7187 35.9176C75.7402 36.0931 75.7269 36.2713 75.6792 36.4416C75.6314 36.6119 75.5503 36.7711 75.441 36.9099C75.3312 37.0488 75.1952 37.1646 75.0408 37.2506L73.1575 38.3385C72.9522 38.4472 72.7229 38.502 72.4904 38.4976Z" fill="#A140FF"/>
<path d="M57.881 46.9036C57.6455 46.9038 57.4142 46.8417 57.2106 46.7237C57.0069 46.6056 56.838 46.4357 56.7212 46.2313C56.6321 46.0792 56.5741 45.9111 56.5503 45.7364C56.5266 45.5617 56.5377 45.384 56.583 45.2137C56.6283 45.0434 56.7071 44.8837 56.8144 44.744C56.9218 44.6042 57.0558 44.487 57.2087 44.3994L59.1947 43.2551C59.3485 43.1677 59.518 43.1116 59.6935 43.0901C59.8691 43.0686 60.0473 43.0821 60.2176 43.1298C60.3879 43.1775 60.5471 43.2585 60.6859 43.3681C60.8248 43.4776 60.9406 43.6137 61.0266 43.7682C61.1132 43.9222 61.1688 44.0917 61.1899 44.2672C61.211 44.4426 61.1974 44.6204 61.1497 44.7906C61.102 44.9607 61.0214 45.1198 60.9122 45.2587C60.803 45.3976 60.6675 45.5136 60.5134 45.6001L58.5327 46.7496C58.3318 46.8548 58.1077 46.9078 57.881 46.9036Z" fill="#A140FF"/>
<path d="M66.2913 49.6025H66.0706C64.5384 49.5691 63.044 49.1223 61.7447 48.3093C60.4502 47.5145 59.3882 46.3923 58.6658 45.0559C57.9908 43.793 57.6382 42.3827 57.6395 40.9507V40.73C57.6768 39.2635 58.0883 37.831 58.8351 36.5683C59.5819 35.2962 60.6419 34.2362 61.9141 33.4894C63.1841 32.7438 64.6235 32.3341 66.0963 32.2989H66.2913C67.7235 32.2944 69.1347 32.6471 70.3965 33.3252C71.7328 34.0477 72.8551 35.1097 73.65 36.4041C74.4607 37.7136 74.9072 39.2159 74.9431 40.7557V40.9558C74.9441 42.445 74.5588 43.909 73.8244 45.2047C73.0547 46.5671 71.9283 47.6938 70.5659 48.4633C69.2645 49.2088 67.7912 49.6015 66.2913 49.6025ZM66.2554 35.0237H66.1784C65.1577 35.0408 64.1591 35.3219 63.2791 35.8396C62.4062 36.3534 61.6785 37.081 61.1648 37.9538C60.6506 38.8279 60.368 39.8188 60.3439 40.8327V40.9712C60.3433 41.9521 60.5847 42.918 61.0468 43.7833C61.5422 44.702 62.2692 45.475 63.1559 46.0258C64.0575 46.5849 65.092 46.8932 66.1527 46.9187H66.2913C67.3181 46.9194 68.3275 46.6542 69.2214 46.149C70.1605 45.6175 70.9374 44.8406 71.469 43.9013C71.973 43.0069 72.2383 41.9978 72.2388 40.9712V40.848C72.2157 39.7829 71.9093 38.7432 71.351 37.8358C70.7983 36.9488 70.0235 36.2218 69.1034 35.7267C68.2269 35.2603 67.2483 35.0188 66.2554 35.0237Z" fill="#A140FF"/>
<path d="M69.7346 35.8849C69.5001 35.8854 69.2702 35.8234 69.0675 35.7053C68.9135 35.6188 68.778 35.5027 68.6687 35.3638C68.5594 35.2249 68.4789 35.0658 68.4312 34.8957C68.3834 34.7256 68.3701 34.5477 68.3911 34.3723C68.4122 34.1968 68.4676 34.0273 68.5543 33.8733L69.7038 31.8874C69.7905 31.7334 69.9065 31.5979 70.045 31.4887C70.1841 31.3795 70.3432 31.2988 70.5135 31.2511C70.6834 31.2034 70.8615 31.1898 71.037 31.211C71.2125 31.2321 71.3818 31.2876 71.5357 31.3742C71.6897 31.4608 71.8252 31.5768 71.9345 31.7157C72.0438 31.8546 72.1243 32.0137 72.1721 32.1839C72.2198 32.354 72.2331 32.5319 72.2121 32.7073C72.191 32.8827 72.1356 33.0522 72.0489 33.2062L70.8994 35.1973C70.784 35.4053 70.6157 35.5787 70.4104 35.6996C70.2056 35.8205 69.9727 35.8845 69.7346 35.8849Z" fill="#A140FF"/>
<path d="M61.3651 50.3865C61.1308 50.3869 60.9005 50.3249 60.698 50.2068C60.544 50.1203 60.4084 50.0043 60.2992 49.8653C60.19 49.7264 60.1094 49.5674 60.0617 49.3972C60.014 49.2271 60.0004 49.0492 60.0215 48.8738C60.0426 48.6984 60.0981 48.5288 60.1849 48.3748L61.2677 46.4967C61.3542 46.3426 61.4702 46.2072 61.6089 46.098C61.7479 45.9888 61.907 45.908 62.0774 45.8604C62.2472 45.8127 62.4253 45.7991 62.6008 45.8202C62.7763 45.8413 62.9456 45.8968 63.0996 45.9835C63.2535 46.07 63.389 46.1861 63.4983 46.325C63.6076 46.4639 63.6882 46.623 63.7359 46.7931C63.7836 46.9633 63.797 47.1411 63.7759 47.3166C63.7549 47.492 63.6995 47.6615 63.6127 47.8155L62.53 49.6988C62.413 49.9054 62.2442 50.0777 62.0394 50.1984C61.8352 50.3191 61.6027 50.3839 61.3651 50.3865Z" fill="#A140FF"/>
</g>
<defs>
<clipPath id="clip0_390_1379">
<rect width="123.671" height="123.671" fill="white" transform="translate(0.0119629 0.0117188)"/>
</clipPath>
</defs>
</svg>
